# xmcd
#
# Track frame offsets:
#	150
#	19710
#	43776
#	58794
#	85017
#	107097
#	119271
#	144935
#	180421
#	202710
#	224763
#
# Disc length: 3824 seconds
#
# Revision: 1
# Processed by: cddbd v1.5.1PL0 Copyright (c) Steve Scherf et al.
# Submitted via: audiograbber 1.83.01
#
DISCID=920eee0b
DTITLE=Gas Giant - Mana
DYEAR=2003
DGENRE=Psychedelic Rock
TTITLE0=There's One
TTITLE1=Moonshake
TTITLE2=Not A Man
TTITLE3=Back On The Headless Track
TTITLE4=Orange Fender
TTITLE5=Mana
TTITLE6=Dragon's Cave
TTITLE7=Green Valley
TTITLE8=Phamton Tanker
TTITLE9=New Day Rising
TTITLE10=Safe Haven
EXTD=
EXTT0=
EXTT1=
EXTT2=
EXTT3=
EXTT4=
EXTT5=
EXTT6=
EXTT7=
EXTT8=
EXTT9=
EXTT10=
PLAYORDER=
